<svg xmlns="http://www.w3.org/2000/svg" xmlns:xlink="http://www.w3.org/1999/xlink" viewBox="0 0 762 214"><defs><linearGradient id="a" x1="76.1" y1="63.06" x2="76.1" y2="8.32" gradientUnits="userSpaceOnUse"><stop offset="0" stop-color="#19d9b4"/><stop offset="0.23" stop-color="#47d69c"/><stop offset="0.47" stop-color="#70d487"/><stop offset="0.65" stop-color="#89d37a"/><stop offset="0.76" stop-color="#92d275"/></linearGradient></defs><title>Go-Find-Logo</title><path d="M47.7,165.14l36,15.45,5,2.27,13.5,19a6.71,6.71,0,0,0,9.09,1.77l36.61-23.32a6.71,6.71,0,0,0,2-9.29l-10.78-16.79.2-16.59c-.18-8.94,1.44-20.9-1.85-28.92A26.09,26.09,0,0,0,135,104l-2.31-3.44L121.47,83.91a7.92,7.92,0,0,0-4-3,8.78,8.78,0,0,0-2.61-.46V54.54a4.57,4.57,0,0,0-4.4-4.57c2.85-4.89,5-9.72,5-13.33a20.42,20.42,0,1,0-40.83,0c0,3.61,2.1,8.43,5,13.32H52.28a4.58,4.58,0,0,0-4.58,4.58v110.6ZM95,26.2A10.18,10.18,0,1,1,84.83,36.38,10.18,10.18,0,0,1,95,26.2Z" style="fill:#cfd5e3"/><path d="M90.19,171.25h-58a4.59,4.59,0,0,1-4.59-4.59V45.19a4.59,4.59,0,0,1,4.59-4.58h58a4.58,4.58,0,0,1,4.58,4.58V166.66A4.58,4.58,0,0,1,90.19,171.25Z" style="fill:#8089ff"/><path d="M90.19,146.56h-58A4.59,4.59,0,0,1,27.59,142V61a4.6,4.6,0,0,1,4.59-4.59h58A4.59,4.59,0,0,1,94.77,61V142A4.58,4.58,0,0,1,90.19,146.56Z" style="fill:#cfd5e3"/><polygon points="55.86 145.18 55.86 110.24 82.08 87.98 82.08 62.87 82.08 56.82 58 56.82 58 75.36 45.41 78.75 43.48 91.12 27.49 91.12 27.49 145.18 55.86 145.18" style="fill:#fff"/><path d="M94.79,73.64,86.91,80A12.74,12.74,0,0,0,84.1,96.61L90.56,107a3.38,3.38,0,0,1-.13,3.77c-4.2,5.78-9.81,18.1-6,35.76H94.77l-.1-37.18Z" style="fill:#9bb1be"/><path d="M76.1,8.32A20.41,20.41,0,0,0,55.69,28.73C55.69,40,76.1,63.06,76.1,63.06S96.52,40,96.52,28.73A20.41,20.41,0,0,0,76.1,8.32Zm0,30.33A10.18,10.18,0,1,1,86.28,28.47,10.18,10.18,0,0,1,76.1,38.65Z" style="fill:url(#a)"/><circle cx="61.08" cy="158.9" r="4.92" style="fill:#fff"/><path d="M29.18,145a9.43,9.43,0,0,0,6.39-9.07h0A9.46,9.46,0,0,0,29,127.13,9.45,9.45,0,0,0,35.53,118h0a9.48,9.48,0,0,0-6.86-8.87,8.18,8.18,0,0,0,6.26-8.06h0a8.24,8.24,0,0,0-7.68-8l-2-.16-4.37-.33a8.36,8.36,0,0,0-8.85,7.81h0a8.16,8.16,0,0,0,5.53,7.89A9.29,9.29,0,0,0,16,126.53a9.43,9.43,0,0,0-6.85,8.59,9.58,9.58,0,0,0,8.75,9.67,8.24,8.24,0,0,0-5.52,7.38,8.47,8.47,0,0,0,8.36,8.55l5.6.53A8.27,8.27,0,0,0,29.18,145Z" style="fill:#ffdba5"/><path d="M123.44,154.94l.2-16.58c-.17-9,1.44-20.9-1.85-28.93a26.38,26.38,0,0,0-2.48-4.7L117,101.3,105.76,84.6a7.81,7.81,0,0,0-4-3A8.77,8.77,0,0,0,94,82.64a8.9,8.9,0,0,0-3.79,5.64,7.93,7.93,0,0,0,1.18,6l3.29,4.89V120a44.69,44.69,0,0,0-3.78,19.62,40.76,40.76,0,0,0,2.63,11.53l1.25,3.22v10.43a6.43,6.43,0,0,1-6.43,6.44H48c3,2.09,9.07,5,12.36,6.59L73,183.55l17.2,24.23,47.69-30.38Z" style="fill:#ffdba5"/><path d="M76.1,41.22A12.75,12.75,0,1,1,88.85,28.47,12.76,12.76,0,0,1,76.1,41.22Zm0-20.36a7.61,7.61,0,1,0,7.61,7.61A7.63,7.63,0,0,0,76.1,20.86Z" style="fill:#1b2a2b"/><path d="M126,153.38l.25-15c0-.82,0-1.64.05-2.46.18-8.69.36-17.67-2.57-25.63a29.06,29.06,0,0,0-2.58-5.31l-13-20.89A10.5,10.5,0,0,0,103,79.84,11.66,11.66,0,0,0,87.56,88a10.6,10.6,0,0,0,1.27,8L78.36,98.37l-7.2,10.33,3.65,9.6L71.3,136.48l6,7.51H58.53V111.1L84.75,88.84V70.05a2.57,2.57,0,0,0-2.57-2.57h0a2.57,2.57,0,0,0-2.57,2.57V86.46L53.39,108.72V144h-8v-2.14a2.57,2.57,0,0,0-2.57-2.57h0a2.57,2.57,0,0,0-2.57,2.57V144H33.91a11.39,11.39,0,0,0,3.17-7.88h0a11.35,11.35,0,0,0-4.3-8.94c.29-.23.58-.48.85-.74a11.44,11.44,0,0,0-.19-16.57,10.67,10.67,0,0,0,.94-16.5h11.4l2-12.89L60.68,77V58.76h8.48c2.47,3.1,4.41,5.32,5,6h0a2.58,2.58,0,0,0,3.85,0h0c.6-.69,2.54-2.91,5-6H92.2V73.18a2.57,2.57,0,0,0,2.57,2.57h0a2.57,2.57,0,0,0,2.57-2.57V45.26a7.25,7.25,0,0,0-1.91-4.88c2.18-4.22,3.66-8.32,3.66-11.65a23,23,0,0,0-46,0c0,6.89,6.34,17.07,12.1,24.89H30.16V45.26a2.08,2.08,0,0,1,2.08-2.08H52.05V38H32.24A7.22,7.22,0,0,0,25,45.26V90.31L21.45,90h-.1a11.3,11.3,0,0,0-7.93,2.8A10.41,10.41,0,0,0,12.87,108c.06.07.14.13.21.2a11.36,11.36,0,0,0-5.43,9.44A11.16,11.16,0,0,0,11,125.79a10.76,10.76,0,0,0,.95.84l-.38.32a11.15,11.15,0,0,0-3.88,7.85,11.37,11.37,0,0,0,6.41,10.77,9.89,9.89,0,0,0-.17,13.68,10.35,10.35,0,0,0,7,3.31L25,163v3.57a7.22,7.22,0,0,0,7.22,7.22H47.19A69.12,69.12,0,0,0,56.54,179l14.75,6.65L86.6,207.17a2.58,2.58,0,0,0,3.59.61h0a2.56,2.56,0,0,0,.6-3.58L74.68,181.49l-16-7.22-1-.45H90.12a7.22,7.22,0,0,0,7.22-7.22v-3.69q1.45,1.78,3.2,3.54a2.57,2.57,0,0,0,3.73-.08h0a2.56,2.56,0,0,0-.07-3.52c-9.33-9.33-12.63-20.58-9.82-33.49a53.38,53.38,0,0,1,7.94-18.25l1-1.4L93.22,93.38a5.48,5.48,0,0,1-.65-4.18,6.43,6.43,0,0,1,2.9-4,6.35,6.35,0,0,1,5.64-.58,5.29,5.29,0,0,1,2.66,2.18l13,20.89a24.71,24.71,0,0,1,2.12,4.38c2.59,7,2.42,15.54,2.25,23.74,0,.84,0,1.66-.05,2.48l-.27,16.5,13.53,21.77a2.58,2.58,0,0,0,3.54.83h0a2.56,2.56,0,0,0,.83-3.53ZM92.2,53.62H87c1.75-2.37,3.55-5,5.21-7.61ZM58.26,28.73a17.85,17.85,0,0,1,35.69,0c0,7.58-11.52,22.86-17.85,30.39C69.77,51.59,58.26,36.32,58.26,28.73Zm-28.1,30H55.54v14.3l-12.3,3.31L41.38,88.22H30.16V58.76ZM16.82,96.68a6.18,6.18,0,0,1,4.1-1.52h.19l6.29.48a5.65,5.65,0,0,1,5.3,5.49,5.45,5.45,0,0,1-1.78,4.15,5.84,5.84,0,0,1-4.51,1.52l-5.51-.53h-.15a6.16,6.16,0,0,1-4.21-1.83A5.29,5.29,0,0,1,15,100.5,5.35,5.35,0,0,1,16.82,96.68Zm-2.09,16.74a6.57,6.57,0,0,1,4.56-1.79h.05L26,112A6.25,6.25,0,0,1,32,118h0a6.27,6.27,0,0,1-6.71,6.5l-5.87-.43h-.15a6.6,6.6,0,0,1-4.61-1.91,6,6,0,0,1,.12-8.72Zm-1.92,21.66a6,6,0,0,1,2.11-4.25,6.64,6.64,0,0,1,4.35-1.6h.34l6.67.64a6.23,6.23,0,0,1,5.66,6.23,6.17,6.17,0,0,1-2.09,4.67A6.23,6.23,0,0,1,25,142.33l-5.84-.67-.16,0A6.37,6.37,0,0,1,12.81,135.08ZM26.42,158l-5-.57h-.15a5.28,5.28,0,0,1-3.6-1.67,4.8,4.8,0,0,1-1.29-3.52,4.74,4.74,0,0,1,1.67-3.36,5.22,5.22,0,0,1,3.45-1.28h.26l5.68.55a5,5,0,0,1,2.82,8.63A4.85,4.85,0,0,1,26.42,158ZM92.2,166.6a2.08,2.08,0,0,1-2.08,2.08H32.24a2.08,2.08,0,0,1-2.08-2.08v-3.94a10.08,10.08,0,0,0,6.11-13.53H89.82v-.32A37.66,37.66,0,0,0,92.2,155V166.6Zm5-57.08a58.74,58.74,0,0,0-7.8,18.57,43.33,43.33,0,0,0-.63,15.9H83.94l-7.14-8.87,3.33-17.28-3.2-8.43,4.5-6.45,10.27-2.28Z" style="fill:#1b2a2b"/><path d="M61.08,151.32a7.49,7.49,0,1,0,7.49,7.49A7.5,7.5,0,0,0,61.08,151.32Zm0,9.84a2.35,2.35,0,1,1,2.35-2.35A2.35,2.35,0,0,1,61.08,161.16Z" style="fill:#1b2a2b"/><rect x="66.5" y="70.46" width="5.14" height="5.57" rx="2.57" style="fill:#1b2a2b"/><rect x="40.28" y="104.58" width="5.14" height="5.57" rx="2.57" style="fill:#1b2a2b"/><rect x="45.07" y="95.55" width="5.57" height="5.14" rx="2.57" transform="translate(-52.12 54.28) rotate(-40.32)" style="fill:#1b2a2b"/><rect x="40.28" y="127.71" width="5.14" height="5.57" rx="2.57" style="fill:#1b2a2b"/><rect x="62.71" y="80.58" width="5.57" height="5.14" rx="2.57" transform="translate(-38.24 62.14) rotate(-40.32)" style="fill:#1b2a2b"/><rect x="40.28" y="116.15" width="5.14" height="5.57" rx="2.57" style="fill:#1b2a2b"/><rect x="53.89" y="88.06" width="5.57" height="5.14" rx="2.57" transform="translate(-45.19 58.22) rotate(-40.33)" style="fill:#1b2a2b"/><path d="M16.53,43.37h-.05a2.56,2.56,0,0,1-2.51-3A17.05,17.05,0,0,1,27.81,26.61a2.58,2.58,0,0,1,3,2.4h0a2.59,2.59,0,0,1-2.11,2.65,12.19,12.19,0,0,0-9.68,9.57A2.58,2.58,0,0,1,16.53,43.37Z" style="fill:#1b2a2b"/><path d="M8.94,31.18h0a2.56,2.56,0,0,1-.87-3.68A27.72,27.72,0,0,1,27.93,15.86a2.56,2.56,0,0,1,2.78,2.56h0A2.56,2.56,0,0,1,28.44,21a22.55,22.55,0,0,0-16.16,9.47A2.55,2.55,0,0,1,8.94,31.18Z" style="fill:#1b2a2b"/><path d="M5.77,43.37h0a2.59,2.59,0,0,1-2.56-2.86c.08-.78.2-1.55.34-2.32a2.58,2.58,0,0,1,3.27-2h0a2.58,2.58,0,0,1,1.78,3c-.12.62-.21,1.24-.27,1.87A2.59,2.59,0,0,1,5.77,43.37Z" style="fill:#1b2a2b"/><path d="M223,156.14a45.91,45.91,0,0,1-23.92-6.48,46.88,46.88,0,0,1-17.06-17.73,50.42,50.42,0,0,1-6.22-24.75,49.76,49.76,0,0,1,6.23-24.58,47.38,47.38,0,0,1,17-17.72A45.59,45.59,0,0,1,223,58.33a47.63,47.63,0,0,1,16.07,2.45,48.24,48.24,0,0,1,13.75,8.06,7,7,0,0,1,2.37,2.82,8.47,8.47,0,0,1,.6,3.29,6.61,6.61,0,0,1-2.25,5.11,7.54,7.54,0,0,1-5.16,2,7.84,7.84,0,0,1-5-1.9,33.1,33.1,0,0,0-9-5.71A31.3,31.3,0,0,0,223,72.68,29.92,29.92,0,0,0,207,77.27a33.51,33.51,0,0,0-11.71,12.57,36.84,36.84,0,0,0,0,34.73A33.56,33.56,0,0,0,207,137.08,29.9,29.9,0,0,0,223,141.67a32.68,32.68,0,0,0,17.37-5.17V118H225.74a7.93,7.93,0,0,1-5.51-2,6.91,6.91,0,0,1,0-10.22,8,8,0,0,1,5.51-2h22.08a7.45,7.45,0,0,1,5.46,2.19,7.63,7.63,0,0,1,2.19,5.58v28.22a6.89,6.89,0,0,1-2.49,5.63A45.76,45.76,0,0,1,223,156.14Z" style="fill:#8089ff"/><path d="M296.81,155.44a35.54,35.54,0,0,1-17.68-4.4,31.4,31.4,0,0,1-12.2-12.26,38.46,38.46,0,0,1,0-35.46,31.33,31.33,0,0,1,12.2-12.26,35.54,35.54,0,0,1,17.68-4.4,35,35,0,0,1,17.51,4.4,31.86,31.86,0,0,1,12.18,12.25,38.21,38.21,0,0,1,.07,35.47A31.6,31.6,0,0,1,314.44,151,35.17,35.17,0,0,1,296.81,155.44Zm0-54.9a19.26,19.26,0,0,0-10,2.61,18.36,18.36,0,0,0-6.89,7.27,22.35,22.35,0,0,0-2.52,10.69,22,22,0,0,0,2.51,10.61,18.47,18.47,0,0,0,6.9,7.23,20.42,20.42,0,0,0,19.94,0,18.17,18.17,0,0,0,6.83-7.21,22.58,22.58,0,0,0,2.46-10.63,22.84,22.84,0,0,0-2.47-10.7,18,18,0,0,0-6.82-7.26A19.29,19.29,0,0,0,296.81,100.54Z" style="fill:#8089ff"/><path d="M401.52,156.62c-7.93,0-14.42-2.21-19.27-6.56s-7.39-10.48-7.39-18.09A23.83,23.83,0,0,1,380,117.22c3.17-4.13,8-8.84,14.38-14l-4.8-4.8c-5.8-6-8.74-12.51-8.74-19.45A20.65,20.65,0,0,1,384,68a21.41,21.41,0,0,1,8.42-7.8,25.37,25.37,0,0,1,11.85-2.78,24.61,24.61,0,0,1,12,2.92,21.8,21.8,0,0,1,8.41,8.09,22.05,22.05,0,0,1,3.06,11.4A23.6,23.6,0,0,1,424,92.55c-2.13,3.24-5.64,6.89-10.45,10.86l18.79,18.78,8.29-8.81c1.81-2,3.52-3,5.2-3a5.54,5.54,0,0,1,3.87,1.89,6.72,6.72,0,0,1,2.36,4.93,7.06,7.06,0,0,1-2.09,4.89l-8.6,9.12,12,12c1.76,1.75,2.61,3.4,2.61,5a6.26,6.26,0,0,1-2.13,4.34,7,7,0,0,1-4.93,2.36c-1.53,0-3.12-.75-4.87-2.3l-11.8-11.8a55.92,55.92,0,0,1-13.75,11.41A33.7,33.7,0,0,1,401.52,156.62Zm1.11-44.49a53.92,53.92,0,0,0-10.12,10.05,15.78,15.78,0,0,0-3.29,9.32c0,4,1,6.84,3.08,8.78s5.18,2.93,9.22,2.93a21.9,21.9,0,0,0,11.05-2.8,49.69,49.69,0,0,0,10.55-8.61l-20.09-20Zm1.6-42A10.11,10.11,0,0,0,397,72.66a7.94,7.94,0,0,0-2.73,6.07c0,3.7,1.79,7.37,5.31,10.88l5.27,5.28.18-.13c3.6-2.87,6.08-5.5,7.31-7.78a16.44,16.44,0,0,0,1.93-7.47,9.18,9.18,0,0,0-2.66-6.73C409.85,71,407.43,70.09,404.23,70.09Z" style="fill:#8089ff"/><path d="M502.57,155a7.67,7.67,0,0,1-7.77-7.76V67.28a7.46,7.46,0,0,1,2.27-5.6,7.65,7.65,0,0,1,5.5-2.17h53.36a7.62,7.62,0,0,1,5.5,2.05,7.14,7.14,0,0,1,2.15,5.36,6.82,6.82,0,0,1-2.17,5.21,7.77,7.77,0,0,1-5.48,2H510.34V99.53h32.25a7.71,7.71,0,0,1,5.42,2,7.34,7.34,0,0,1,0,10.54,7.68,7.68,0,0,1-5.42,2H510.34V147.2a7.67,7.67,0,0,1-7.77,7.76Z" style="fill:#8089ff"/><path d="M583.67,155a7.47,7.47,0,0,1-7.65-7.65V94.78a7.38,7.38,0,0,1,2.21-5.54,7.62,7.62,0,0,1,13.09,5.54v52.53a7.58,7.58,0,0,1-2.11,5.45A7.4,7.4,0,0,1,583.67,155Zm0-75.08a9.49,9.49,0,1,1,6.64-2.78A9.08,9.08,0,0,1,583.67,79.88Z" style="fill:#8089ff"/><path d="M666.66,155.08a7.48,7.48,0,0,1-7.65-7.65v-29c0-5.88-1.56-10.35-4.63-13.28s-7.23-4.45-12.51-4.45a18.64,18.64,0,0,0-8.31,1.84,14.4,14.4,0,0,0-5.75,4.88,11.77,11.77,0,0,0-2,6.76v33.29a7.56,7.56,0,0,1-2.11,5.44,7.68,7.68,0,0,1-13.19-5.44V94.78a7.38,7.38,0,0,1,2.21-5.54,8.14,8.14,0,0,1,11,0,7.08,7.08,0,0,1,1.9,3.42,28.55,28.55,0,0,1,7-4,31.48,31.48,0,0,1,11.7-2.18,31.84,31.84,0,0,1,15.42,3.74,26.67,26.67,0,0,1,10.8,11,35.77,35.77,0,0,1,3.86,17.12v29a7.48,7.48,0,0,1-7.65,7.65Z" style="fill:#8089ff"/><path d="M721.91,155.44a34.45,34.45,0,0,1-17.4-4.53,32.71,32.71,0,0,1-12.35-12.41A35,35,0,0,1,687.69,121a37,37,0,0,1,4.15-17.47,31.62,31.62,0,0,1,11.44-12.37,30.59,30.59,0,0,1,16.27-4.49A30.62,30.62,0,0,1,740.7,94.9V67.16a7.37,7.37,0,0,1,2.21-5.54,7.56,7.56,0,0,1,5.44-2.11A7.3,7.3,0,0,1,756,67.16V121a34.63,34.63,0,0,1-4.53,17.52A33.46,33.46,0,0,1,739.2,150.9,33.79,33.79,0,0,1,721.91,155.44Zm0-54.9a18.73,18.73,0,0,0-9.84,2.66,19.36,19.36,0,0,0-7,7.3,22.78,22.78,0,0,0,0,21,19.21,19.21,0,0,0,7,7.36,18.91,18.91,0,0,0,26.58-7.35A22.17,22.17,0,0,0,741.17,121a21.82,21.82,0,0,0-2.52-10.5,18.66,18.66,0,0,0-16.74-9.95Z" style="fill:#8089ff"/></svg>